<?xml version="1.0"?>
<svg width="220px" height="220px" viewBox="0 0 220 220" version="1.1" xmlns="http://www.w3.org/2000/svg" xmlns:xlink="http://www.w3.org/1999/xlink">
    
    <title>adaptability</title>
    <desc>Created with Sketch.</desc>
    <g id="adaptability" stroke="none" stroke-width="1" fill="none" fill-rule="evenodd">
        <path d="M110.38,34.78 C68.8644408,34.7800059 35.2073708,68.4311152 35.2000118,109.946674 C35.1926529,151.462232 68.8377909,185.125271 110.353348,185.139995 C151.868904,185.154719 185.537911,151.515553 185.56,110 C185.573268,90.053282 177.658079,70.9191343 163.557368,56.810921 C149.456657,42.7027076 130.326722,34.777342 110.38,34.78 Z M110.38,169.2 C86.4160177,169.199995 64.8124378,154.7623 55.6455601,132.620918 C46.4786823,110.479536 51.5543409,84.9962204 68.5051571,68.0568498 C85.4559732,51.1174791 110.942711,46.0590343 133.077897,55.2408653 C155.213082,64.4226963 169.636181,86.0360232 169.62,110 C169.559402,142.685736 143.065769,169.161479 110.38,169.2 Z" id="Shape" fill="#FFFFFF" fill-rule="nonzero"></path>
        <path d="M110.38,58.64 C82.0419555,58.6400086 59.067374,81.6086335 59.0600173,109.946677 C59.0526606,138.284721 82.0153135,161.265271 110.353354,161.279993 C138.691395,161.294715 161.677913,138.338036 161.7,110 C161.694495,81.6525517 138.727435,58.6675909 110.38,58.64 Z M110.38,154.33 C92.425418,154.329989 76.2397053,143.511731 69.3734645,126.921922 C62.5072237,110.332113 66.3133613,91.2395673 79.0163218,78.5509184 C91.7192823,65.8622695 110.816107,62.0776567 127.398165,68.9625943 C143.980223,75.8475319 154.780228,92.0454294 154.76,110 C154.73792,134.493157 134.873166,154.33553 110.38,154.33 Z" id="Shape" fill="#FFFFFF" fill-rule="nonzero"></path>
        <path d="M103.19,103.43 C96.43,110.61 89.78,130.56 89.78,130.56 C89.78,130.56 109.78,123.91 116.91,117.15 C117.14,116.94 117.37,116.71 117.58,116.49 C124.33,109.3 130.98,89.36 130.98,89.36 C130.98,89.36 111,96 103.85,102.76 C103.63,103 103.4,103.2 103.19,103.43 Z M110.38,105.1 C112.346591,105.095954 114.121791,106.277485 114.877178,108.093219 C115.632566,109.908952 115.219237,112.000963 113.830076,113.392988 C112.440916,114.785012 110.349761,115.202649 108.532476,114.451003 C106.71519,113.699357 105.530004,111.926596 105.53,109.96 C105.535476,107.282067 107.702084,105.110992 110.38,105.1 Z" id="Shape" fill="#FFFFFF" fill-rule="nonzero"></path>
    </g>
</svg>