<?xml version="1.0"?>
<svg width="220px" height="220px" viewBox="0 0 220 220" version="1.1" xmlns="http://www.w3.org/2000/svg" xmlns:xlink="http://www.w3.org/1999/xlink">
    
    <title>content</title>
    <desc>Created with Sketch.</desc>
    <g id="content" stroke="none" stroke-width="1" fill="none" fill-rule="evenodd">
        <path d="M147.05,88.32 C141.470162,88.3195515 135.969864,86.9967384 131,84.46 C130.728155,84.5267304 130.449843,84.5636151 130.17,84.57 L76,84.57 C74.0670034,84.57 72.5,83.0029966 72.5,81.07 C72.5,79.1370034 74.0670034,77.57 76,77.57 L121.7,77.57 C113.831052,69.5715016 110.230627,58.3099657 112,47.23 L76.37,47.23 C62.9203111,47.2903817 52.0383239,58.1902301 52,71.64 L52,166.87 C52.0384491,180.340835 62.9491647,191.251551 76.42,191.29 L130.12,191.29 C143.58693,191.246063 154.491579,180.336947 154.53,166.87 L154.53,87.53 C152.071464,88.0561382 149.564203,88.3209425 147.05,88.32 Z M107.33,168 L76,168 C74.0670034,168 72.5,166.432997 72.5,164.5 C72.5,162.567003 74.0670034,161 76,161 L107.37,161 C109.302997,161 110.87,162.567003 110.87,164.5 C110.87,166.432997 109.302997,168 107.37,168 L107.33,168 Z M120.09,151.56 L76,151.56 C74.0670034,151.56 72.5,149.992997 72.5,148.06 C72.5,146.127003 74.0670034,144.56 76,144.56 L120.13,144.56 C122.062997,144.56 123.63,146.127003 123.63,148.06 C123.63,149.992997 122.062997,151.56 120.13,151.56 L120.09,151.56 Z M130.15,134.37 L76,134.37 C74.0670034,134.37 72.5,132.802997 72.5,130.87 C72.5,128.937003 74.0670034,127.37 76,127.37 L130.19,127.37 C132.122997,127.37 133.69,128.937003 133.69,130.87 C133.69,132.802997 132.122997,134.37 130.19,134.37 L130.15,134.37 Z" id="Shape" fill="#FFFFFF" fill-rule="nonzero"></path>
        <path d="M134.64,47.67 C132.430101,52.9283682 133.782778,59.0090178 138.013465,62.8346391 C142.244152,66.6602603 148.429815,67.3961952 153.44,64.67 C150.803443,55.9600941 143.57044,49.4196121 134.64,47.67 Z" id="Path" fill="#FFFFFF"></path>
        <path d="M178.69,96.32 L165.14,74.87 C176.633936,65.4390387 178.893327,48.7324659 170.317344,36.5872563 C161.741361,24.4420467 145.24166,20.9816551 132.508644,28.657845 C119.775627,36.334035 115.132317,52.5406414 121.868601,65.7949268 C128.604885,79.0492122 144.433708,84.8511764 158.14,79.09 L171.77,100.66 C173.005505,102.467675 175.449731,102.973939 177.301617,101.805743 C179.153503,100.637548 179.749306,98.2135916 178.65,96.32 L178.69,96.32 Z M126.63,52.82 C126.63,41.5423454 135.772345,32.4 147.05,32.4 C158.327655,32.4 167.47,41.5423454 167.47,52.82 C167.47,64.0976546 158.327655,73.24 147.05,73.24 C141.633466,73.2426545 136.438017,71.0921203 132.607948,67.2620519 C128.77788,63.4319834 126.627345,58.2365341 126.63,52.82 Z" id="Shape" fill="#FFFFFF" fill-rule="nonzero"></path>
    </g>
</svg>