<svg xmlns="http://www.w3.org/2000/svg" viewBox="0 0 600 600">
    <polygon fill="#b74961" points="458.1 279.16 458.21 279.1 326.44 203.02 144.93 307.82 145.04 307.88 144.93 307.94 145.04 308.01 144.93 308.07 145.04 308.14 144.93 308.2 145.04 308.26 144.93 308.33 145.04 308.39 144.93 308.46 145.04 308.52 144.93 308.59 145.04 308.65 144.93 308.71 145.04 308.78 144.93 308.84 145.04 308.91 144.93 308.97 145.04 309.03 144.93 309.1 145.04 309.16 144.93 309.23 145.04 309.29 144.93 309.36 145.04 309.42 144.93 309.48 145.04 309.55 144.93 309.61 145.04 309.68 144.93 309.74 145.04 309.8 144.93 309.87 145.04 309.93 144.93 310 145.04 310.06 144.93 310.12 145.04 310.19 144.93 310.25 145.04 310.32 144.93 310.38 145.04 310.44 144.93 310.51 145.04 310.57 144.93 310.64 145.04 310.7 144.93 310.76 145.04 310.83 144.93 310.89 145.04 310.96 144.93 311.02 145.04 311.08 144.93 311.15 145.04 311.21 144.93 311.28 145.04 311.34 144.93 311.4 145.04 311.47 144.93 311.53 145.04 311.6 144.93 311.66 145.04 311.73 144.93 311.79 145.04 311.85 144.93 311.92 145.04 311.98 144.93 312.05 145.04 312.11 144.93 312.17 145.04 312.24 144.93 312.3 145.04 312.37 144.93 312.43 145.04 312.49 144.93 312.56 145.04 312.62 144.93 312.69 145.04 312.75 144.93 312.81 145.04 312.88 144.93 312.94 145.04 313.01 144.93 313.07 145.04 313.13 144.93 313.2 145.04 313.26 144.93 313.33 145.04 313.39 144.93 313.45 145.04 313.52 144.93 313.58 145.04 313.65 144.93 313.71 145.04 313.78 144.93 313.84 145.04 313.9 144.93 313.97 145.04 314.03 144.93 314.1 145.04 314.16 144.93 314.22 145.04 314.29 144.93 314.35 145.04 314.42 144.93 314.48 145.04 314.55 144.93 314.61 145.04 314.67 144.93 314.74 145.04 314.8 144.93 314.87 145.04 314.93 144.93 314.99 145.04 315.06 144.93 315.12 145.04 315.19 144.93 315.25 145.04 315.31 144.93 315.38 145.04 315.44 144.93 315.51 145.04 315.57 144.93 315.63 145.04 315.7 144.93 315.76 145.04 315.83 144.93 315.89 145.04 315.95 144.93 316.02 145.04 316.08 144.93 316.15 145.04 316.21 144.93 316.27 145.04 316.34 144.93 316.4 145.04 316.47 144.93 316.53 145.04 316.6 144.93 316.66 145.04 316.72 144.93 316.79 145.04 316.85 144.93 316.92 145.04 316.98 144.93 317.04 145.04 317.11 144.93 317.17 145.04 317.24 144.93 317.3 145.04 317.36 144.93 317.43 145.04 317.49 144.93 317.56 145.04 317.62 144.93 317.68 145.04 317.75 144.93 317.81 145.04 317.88 144.93 317.94 145.04 318 144.93 318.07 145.04 318.13 144.93 318.2 145.04 318.26 144.93 318.32 145.04 318.39 144.93 318.45 145.04 318.52 144.93 318.58 145.04 318.65 144.93 318.71 145.04 318.77 144.93 318.84 145.04 318.9 144.93 318.97 145.04 319.03 144.93 319.09 145.04 319.16 144.93 319.22 145.04 319.29 144.93 319.35 145.04 319.41 144.93 319.48 145.04 319.54 144.93 319.61 145.04 319.67 144.93 319.74 145.04 319.8 144.93 319.86 145.04 319.93 144.93 319.99 145.04 320.06 144.93 320.12 145.04 320.18 144.93 320.25 145.04 320.31 144.93 320.38 145.04 320.44 144.93 320.5 145.04 320.57 144.93 320.63 145.04 320.7 144.93 320.76 276.7 396.84 458.21 292.04 458.1 291.98 458.21 291.91 458.1 291.85 458.21 291.79 458.1 291.72 458.21 291.66 458.1 291.59 458.21 291.53 458.1 291.46 458.21 291.4 458.1 291.34 458.21 291.27 458.1 291.21 458.21 291.14 458.1 291.08 458.21 291.02 458.1 290.95 458.21 290.89 458.1 290.82 458.21 290.76 458.1 290.7 458.21 290.63 458.1 290.57 458.21 290.5 458.1 290.44 458.21 290.38 458.1 290.31 458.21 290.25 458.1 290.18 458.21 290.12 458.1 290.06 458.21 289.99 458.1 289.93 458.21 289.86 458.1 289.8 458.21 289.74 458.1 289.67 458.21 289.61 458.1 289.54 458.21 289.48 458.1 289.41 458.21 289.35 458.1 289.29 458.21 289.22 458.1 289.16 458.21 289.09 458.1 289.03 458.21 288.97 458.1 288.9 458.21 288.84 458.1 288.77 458.21 288.71 458.1 288.64 458.21 288.58 458.1 288.52 458.21 288.45 458.1 288.39 458.21 288.32 458.1 288.26 458.21 288.2 458.1 288.13 458.21 288.07 458.1 288 458.21 287.94 458.1 287.88 458.21 287.81 458.1 287.75 458.21 287.68 458.1 287.62 458.21 287.56 458.1 287.49 458.21 287.43 458.1 287.36 458.21 287.3 458.1 287.24 458.21 287.17 458.1 287.11 458.21 287.04 458.1 286.98 458.21 286.92 458.1 286.85 458.21 286.79 458.1 286.72 458.21 286.66 458.1 286.6 458.21 286.53 458.1 286.47 458.21 286.4 458.1 286.34 458.21 286.27 458.1 286.21 458.21 286.15 458.1 286.08 458.21 286.02 458.1 285.95 458.21 285.89 458.1 285.83 458.21 285.76 458.1 285.7 458.21 285.63 458.1 285.57 458.21 285.51 458.1 285.44 458.21 285.38 458.1 285.31 458.21 285.25 458.1 285.19 458.21 285.12 458.1 285.06 458.21 284.99 458.1 284.93 458.21 284.87 458.1 284.8 458.21 284.74 458.1 284.67 458.21 284.61 458.1 284.55 458.21 284.48 458.1 284.42 458.21 284.35 458.1 284.29 458.21 284.22 458.1 284.16 458.21 284.1 458.1 284.03 458.21 283.97 458.1 283.9 458.21 283.84 458.1 283.78 458.21 283.71 458.1 283.65 458.21 283.58 458.1 283.52 458.21 283.45 458.1 283.39 458.21 283.33 458.1 283.26 458.21 283.2 458.1 283.13 458.21 283.07 458.1 283.01 458.21 282.94 458.1 282.88 458.21 282.81 458.1 282.75 458.21 282.69 458.1 282.62 458.21 282.56 458.1 282.49 458.21 282.43 458.1 282.37 458.21 282.3 458.1 282.24 458.21 282.17 458.1 282.11 458.21 282.05 458.1 281.98 458.21 281.92 458.1 281.85 458.21 281.79 458.1 281.73 458.21 281.66 458.1 281.6 458.21 281.53 458.1 281.47 458.21 281.4 458.1 281.34 458.21 281.28 458.1 281.21 458.21 281.15 458.1 281.08 458.21 281.02 458.1 280.96 458.21 280.89 458.1 280.83 458.21 280.76 458.1 280.7 458.21 280.64 458.1 280.57 458.21 280.51 458.1 280.44 458.21 280.38 458.1 280.32 458.21 280.25 458.1 280.19 458.21 280.12 458.1 280.06 458.21 280 458.1 279.93 458.21 279.87 458.1 279.8 458.21 279.74 458.1 279.68 458.21 279.61 458.1 279.55 458.21 279.48 458.1 279.42 458.21 279.36 458.1 279.29 458.21 279.23 458.1 279.16"></polygon>
    <polygon fill="#ff6379" points="276.7 383.89 144.93 307.82 326.44 203.02 458.21 279.1 276.7 383.89"></polygon>
    <polygon fill="#fdf4ea" points="277.02 368.36 171.84 307.63 324.83 219.3 430.01 280.03 277.02 368.36"></polygon>
    <polygon fill="#b74961" points="311.83 266.44 291.61 254.77 311.7 243.17 331.93 254.84 311.83 266.44"></polygon>
    <polygon fill="#b74961" points="269.69 290.77 249.47 279.1 269.57 267.49 289.79 279.17 269.69 290.77"></polygon>
    <polygon fill="#b74961" points="227.56 315.1 207.33 303.42 227.43 291.82 247.65 303.5 227.56 315.1"></polygon>
    <polygon fill="#b74961" points="387.68 291.2 332.88 259.56 336.49 257.48 391.29 289.11 387.68 291.2"></polygon>
    <polygon fill="#b74961" points="357.76 283.44 324.64 264.32 328.25 262.24 361.37 281.36 357.76 283.44"></polygon>
    <polygon fill="#b74961" points="361.56 295.15 316.4 269.08 320.01 267 365.17 293.07 361.56 295.15"></polygon>
    <polygon fill="#b74961" points="320.1 300.84 290.74 283.89 294.36 281.81 323.71 298.75 320.1 300.84"></polygon>
    <polygon fill="#b74961" points="332.08 317.27 282.5 288.65 286.11 286.56 335.69 315.19 332.08 317.27"></polygon>
    <polygon fill="#b74961" points="315.36 317.14 274.26 293.41 277.87 291.32 318.97 315.05 315.36 317.14"></polygon>
    <polygon fill="#b74961" points="292.31 333.45 248.61 308.22 252.22 306.13 295.93 331.37 292.31 333.45"></polygon>
    <polygon fill="#b74961" points="267.76 328.8 240.36 312.98 243.98 310.89 271.38 326.71 267.76 328.8"></polygon>
    <polygon fill="#b74961" points="280.39 345.61 232.12 317.74 235.74 315.65 284.01 343.52 280.39 345.61"></polygon>
    <polygon fill="#b74961" points="430.02 244.02 430.13 243.95 364.9 206.29 338.97 221.26 339.08 221.33 338.97 221.39 339.08 221.45 338.97 221.52 339.08 221.58 338.97 221.65 339.08 221.71 338.97 221.77 339.08 221.84 338.97 221.9 339.08 221.97 338.97 222.03 339.08 222.09 338.97 222.16 339.08 222.22 338.97 222.29 339.08 222.35 338.97 222.41 339.08 222.48 338.97 222.54 339.08 222.61 338.97 222.67 339.08 222.74 338.97 222.8 339.08 222.86 338.97 222.93 339.08 222.99 338.97 223.06 339.08 223.12 338.97 223.18 339.08 223.25 338.97 223.31 339.08 223.38 338.97 223.44 339.08 223.5 338.97 223.57 339.08 223.63 338.97 223.7 339.08 223.76 338.97 223.82 339.08 223.89 338.97 223.95 339.08 224.02 338.97 224.08 339.08 224.15 338.97 224.21 339.08 224.27 338.97 224.34 339.08 224.4 338.97 224.47 339.08 224.53 338.97 224.59 339.08 224.66 338.97 224.72 339.08 224.79 338.97 224.85 339.08 224.91 338.97 224.98 339.08 225.04 338.97 225.11 339.08 225.17 338.97 225.24 339.08 225.3 338.97 225.36 339.08 225.43 338.97 225.49 339.08 225.56 338.97 225.62 339.08 225.68 338.97 225.75 339.08 225.81 338.97 225.88 339.08 225.94 338.97 226 339.08 226.07 338.97 226.13 339.08 226.2 338.97 226.26 339.08 226.32 338.97 226.39 339.08 226.45 338.97 226.52 339.08 226.58 338.97 226.64 339.08 226.71 338.97 226.77 339.08 226.84 338.97 226.9 339.08 226.97 338.97 227.03 339.08 227.09 338.97 227.16 339.08 227.22 338.97 227.28 339.08 227.35 338.97 227.41 339.08 227.48 338.97 227.54 339.08 227.6 338.97 227.67 339.08 227.73 338.97 227.8 339.08 227.86 338.97 227.93 339.08 227.99 338.97 228.05 339.08 228.12 338.97 228.18 339.08 228.25 338.97 228.31 339.08 228.37 338.97 228.44 339.08 228.5 338.97 228.57 339.08 228.63 338.97 228.69 339.08 228.76 338.97 228.82 339.08 228.89 338.97 228.95 339.08 229.01 338.97 229.08 339.08 229.14 338.97 229.21 339.08 229.27 338.97 229.34 339.08 229.4 338.97 229.46 339.08 229.53 338.97 229.59 339.08 229.66 338.97 229.72 339.08 229.78 338.97 229.85 339.08 229.91 338.97 229.98 339.08 230.04 338.97 230.1 339.08 230.17 338.97 230.23 339.08 230.3 338.97 230.36 339.08 230.42 338.97 230.49 339.08 230.55 338.97 230.62 339.08 230.68 338.97 230.75 339.08 230.81 338.97 230.87 339.08 230.94 338.97 231 339.08 231.06 338.97 231.13 339.08 231.19 338.97 231.26 339.08 231.32 338.97 231.39 339.08 231.45 338.97 231.51 339.08 231.58 338.97 231.64 339.08 231.71 338.97 231.77 339.08 231.83 338.97 231.9 339.08 231.96 338.97 232.03 339.08 232.09 338.97 232.15 339.08 232.22 338.97 232.28 339.08 232.35 338.97 232.41 339.08 232.47 338.97 232.54 339.08 232.6 338.97 232.67 339.08 232.73 338.97 232.79 339.08 232.86 338.97 232.92 339.08 232.99 338.97 233.05 339.08 233.12 338.97 233.18 339.08 233.24 338.97 233.31 339.08 233.37 338.97 233.44 339.08 233.5 338.97 233.56 339.08 233.63 338.97 233.69 339.08 233.76 338.97 233.82 339.08 233.88 338.97 233.95 339.08 234.01 338.97 234.08 339.08 234.14 338.97 234.21 404.2 271.87 430.13 256.9 430.02 256.83 430.13 256.77 430.02 256.7 430.13 256.64 430.02 256.58 430.13 256.51 430.02 256.45 430.13 256.38 430.02 256.32 430.13 256.26 430.02 256.19 430.13 256.13 430.02 256.06 430.13 256 430.02 255.94 430.13 255.87 430.02 255.81 430.13 255.74 430.02 255.68 430.13 255.62 430.02 255.55 430.13 255.49 430.02 255.42 430.13 255.36 430.02 255.29 430.13 255.23 430.02 255.17 430.13 255.1 430.02 255.04 430.13 254.97 430.02 254.91 430.13 254.85 430.02 254.78 430.13 254.72 430.02 254.65 430.13 254.59 430.02 254.53 430.13 254.46 430.02 254.4 430.13 254.33 430.02 254.27 430.13 254.21 430.02 254.14 430.13 254.08 430.02 254.01 430.13 253.95 430.02 253.88 430.13 253.82 430.02 253.76 430.13 253.69 430.02 253.63 430.13 253.56 430.02 253.5 430.13 253.44 430.02 253.37 430.13 253.31 430.02 253.24 430.13 253.18 430.02 253.12 430.13 253.05 430.02 252.99 430.13 252.92 430.02 252.86 430.13 252.8 430.02 252.73 430.13 252.67 430.02 252.6 430.13 252.54 430.02 252.47 430.13 252.41 430.02 252.35 430.13 252.28 430.02 252.22 430.13 252.16 430.02 252.09 430.13 252.03 430.02 251.96 430.13 251.9 430.02 251.83 430.13 251.77 430.02 251.71 430.13 251.64 430.02 251.58 430.13 251.51 430.02 251.45 430.13 251.39 430.02 251.32 430.13 251.26 430.02 251.19 430.13 251.13 430.02 251.07 430.13 251 430.02 250.94 430.13 250.87 430.02 250.81 430.13 250.75 430.02 250.68 430.13 250.62 430.02 250.55 430.13 250.49 430.02 250.43 430.13 250.36 430.02 250.3 430.13 250.23 430.02 250.17 430.13 250.1 430.02 250.04 430.13 249.98 430.02 249.91 430.13 249.85 430.02 249.78 430.13 249.72 430.02 249.66 430.13 249.59 430.02 249.53 430.13 249.46 430.02 249.4 430.13 249.34 430.02 249.27 430.13 249.21 430.02 249.14 430.13 249.08 430.02 249.01 430.13 248.95 430.02 248.89 430.13 248.82 430.02 248.76 430.13 248.69 430.02 248.63 430.13 248.57 430.02 248.5 430.13 248.44 430.02 248.38 430.13 248.31 430.02 248.25 430.13 248.18 430.02 248.12 430.13 248.05 430.02 247.99 430.13 247.93 430.02 247.86 430.13 247.8 430.02 247.73 430.13 247.67 430.02 247.61 430.13 247.54 430.02 247.48 430.13 247.41 430.02 247.35 430.13 247.28 430.02 247.22 430.13 247.16 430.02 247.09 430.13 247.03 430.02 246.97 430.13 246.9 430.02 246.84 430.13 246.77 430.02 246.71 430.13 246.64 430.02 246.58 430.13 246.52 430.02 246.45 430.13 246.39 430.02 246.32 430.13 246.26 430.02 246.2 430.13 246.13 430.02 246.07 430.13 246 430.02 245.94 430.13 245.88 430.02 245.81 430.13 245.75 430.02 245.68 430.13 245.62 430.02 245.56 430.13 245.49 430.02 245.43 430.13 245.36 430.02 245.3 430.13 245.24 430.02 245.17 430.13 245.11 430.02 245.04 430.13 244.98 430.02 244.91 430.13 244.85 430.02 244.79 430.13 244.72 430.02 244.66 430.13 244.59 430.02 244.53 430.13 244.47 430.02 244.4 430.13 244.34 430.02 244.27 430.13 244.21 430.02 244.15 430.13 244.08 430.02 244.02"></polygon>
    <polygon fill="#ff6379" points="404.2 258.92 338.97 221.26 364.9 206.29 430.13 243.95 404.2 258.92"></polygon>
</svg>