<?xml version="1.0"?>
<svg width="220px" height="220px" viewBox="0 0 220 220" version="1.1" xmlns="http://www.w3.org/2000/svg" xmlns:xlink="http://www.w3.org/1999/xlink">
    
    <title>innovation</title>
    <desc>Created with Sketch.</desc>
    <g id="innovation" stroke="none" stroke-width="1" fill="none" fill-rule="evenodd">
        <path d="M110.440237,27.0001342 C109.523685,26.9920069 108.642453,27.3532032 107.995269,28.0022682 C107.348085,28.6513332 106.989449,29.5336106 107.000237,30.4501342 L107.000237,46.7401342 C107.098899,48.5707123 108.612002,50.0044598 110.445237,50.0044598 C112.278471,50.0044598 113.791574,48.5707123 113.890237,46.7401342 L113.890237,30.4501342 C113.89832,29.5326831 113.537436,28.6504574 112.888674,28.0016963 C112.239913,27.3529352 111.357688,26.9920505 110.440237,27.0001342 Z" id="Path" fill="#FFFFFF"></path>
        <path d="M50.9256744,102.005019 L34.6356744,102.005019 C33.3606062,101.936297 32.1518561,102.577467 31.4936526,103.671674 C30.8354491,104.765882 30.8354491,106.134156 31.4936526,107.228364 C32.1518561,108.322571 33.3606062,108.963741 34.6356744,108.895019 L50.9256744,108.895019 C52.8071877,108.842438 54.3185553,107.326677 54.3656744,105.445019 C54.3765114,104.529395 54.0175648,103.648107 53.3700756,103.000618 C52.7225864,102.353129 51.8412984,101.994182 50.9256744,102.005019 Z" id="Path" fill="#FFFFFF"></path>
        <path d="M188.204326,103.08123 C187.514717,102.36694 186.556841,101.975082 185.564326,102.00123 L169.264326,102.00123 C167.433748,102.099892 166,103.612995 166,105.44623 C166,107.279465 167.433748,108.792567 169.264326,108.89123 L185.564326,108.89123 C186.480877,108.899357 187.362109,108.538161 188.009293,107.889096 C188.656477,107.240031 189.015113,106.357753 189.004326,105.44123 C189.080743,104.577144 188.790433,103.720731 188.204326,103.08123 Z" id="Path" fill="#FFFFFF"></path>
        <path d="M65.625531,144.957467 L54.105531,156.487467 C53.1856299,157.346102 52.8009216,158.634462 53.0994046,159.85691 C53.3978875,161.079359 54.3330598,162.045446 55.5451578,162.383515 C56.7572559,162.721584 58.0574421,162.378966 58.945531,161.487467 L70.485531,149.947467 C71.1645844,149.292419 71.5504097,148.390958 71.555531,147.447467 C71.5485892,146.501435 71.1632647,145.597543 70.485531,144.937467 C69.1065974,143.679872 66.9940675,143.688565 65.625531,144.957467 Z" id="Path" fill="#FFFFFF"></path>
        <path d="M151.63482,67.7057995 C152.540488,67.6981353 153.407924,67.3396909 154.05482,66.7057995 L165.59482,55.1657995 C166.56438,54.2890694 166.97189,52.9493882 166.654758,51.6812674 C166.337627,50.4131467 165.347473,49.4229928 164.079352,49.1058615 C162.811232,48.7887301 161.47155,49.1962393 160.59482,50.1657995 L149.05482,61.7057995 C148.380394,62.3627393 148,63.2643002 148,64.2057995 C148,65.1472987 148.380394,66.0488597 149.05482,66.7057995 C149.777586,67.3203015 150.686714,67.6726767 151.63482,67.7057995 Z" id="Path" fill="#FFFFFF"></path>
        <path d="M59.1657995,50.1657995 C58.2890694,49.1962393 56.9493882,48.7887301 55.6812674,49.1058615 C54.4131467,49.4229928 53.4229928,50.4131467 53.1058615,51.6812674 C52.7887301,52.9493882 53.1962393,54.2890694 54.1657995,55.1657995 L65.8757995,66.7057995 C66.7638883,67.5972985 68.0640746,67.9399167 69.2761727,67.6018476 C70.4882707,67.2637786 71.423443,66.2976915 71.7219259,65.075243 C72.0204089,63.8527945 71.6357006,62.5644347 70.7157995,61.7057995 L59.1657995,50.1657995 Z" id="Path" fill="#FFFFFF"></path>
        <path d="M154.165799,145.165799 C153.289069,144.196239 151.949388,143.78873 150.681267,144.105861 C149.413147,144.422993 148.422993,145.413147 148.105861,146.681267 C147.78873,147.949388 148.196239,149.289069 149.165799,150.165799 L160.705799,161.705799 C161.352696,162.339691 162.220131,162.698135 163.125799,162.705799 C164.032319,162.702359 164.901281,162.343284 165.545799,161.705799 C166.227987,161.053087 166.613813,160.149946 166.613813,159.205799 C166.613813,158.261653 166.227987,157.358512 165.545799,156.705799 L154.165799,145.165799 Z" id="Path" fill="#FFFFFF"></path>
        <path d="M109.73412,65.006465 C98.8058873,65.0773361 88.3581816,69.5081679 80.7108006,77.3151431 C73.0634196,85.1221184 68.8492928,95.659099 69.0041203,106.586465 C69.1853534,117.040448 73.3068375,127.040583 80.5441203,134.586465 C85.9774305,140.230586 89.5360921,147.414263 90.7341203,155.156465 C91.2384248,158.505854 94.1372479,160.969214 97.5241203,160.926465 L122.98412,160.926465 C126.349374,160.910033 129.214899,158.47497 129.77412,155.156465 C130.944798,147.419389 134.504004,140.24154 139.95412,134.626465 C151.517086,122.688128 154.742753,104.956619 148.125035,89.7109029 C141.507316,74.4651868 126.35157,64.7125097 109.73412,65.006465 Z M137.17412,107.926465 C136.26708,107.926465 135.39719,107.566145 134.755815,106.92477 C134.114441,106.283396 133.75412,105.413505 133.75412,104.506465 C133.774814,98.7700843 131.486242,93.2666979 127.40412,89.236465 C123.299071,85.1596707 117.739509,82.885468 111.95412,82.916465 L111.75412,82.916465 C109.865306,82.916465 108.33412,81.3852788 108.33412,79.496465 C108.33412,77.6076511 109.865306,76.076465 111.75412,76.076465 C119.413909,76.0043158 126.785778,78.9919385 132.23412,84.376465 C137.614857,89.68644 140.634661,96.9368528 140.61412,104.496465 C140.619664,106.381395 139.099026,107.91545 137.21412,107.926465 L137.17412,107.926465 Z" id="Shape" fill="#FFFFFF" fill-rule="nonzero"></path>
        <path d="M124.440014,167.000011 L95.7600145,167.000011 C94.4967697,166.997348 93.2844976,167.497992 92.3912467,168.391243 C91.4979958,169.284494 90.9973522,170.496766 91.0000145,171.760011 L91.0000145,176.680011 C90.9926241,180.519291 93.818073,183.775813 97.6200145,184.310011 L98.8100145,188.730011 C99.3914084,191.15267 101.578982,192.845336 104.070014,192.800011 L115.950014,192.800011 C118.406342,192.744137 120.539373,191.093674 121.210014,188.730011 L122.400014,184.310011 C126.204177,183.779902 129.031766,180.520913 129.020014,176.680011 L129.020014,171.760011 C128.986517,169.214219 126.982625,167.131571 124.440014,167.000011 Z" id="Path" fill="#FFFFFF"></path>
    </g>
</svg>