<svg xmlns="http://www.w3.org/2000/svg" viewBox="0 0 600 600">
    <polygon fill="#1a212e" points="194.99 309.38 278.18 357.41 416.13 277.76 332.94 229.73 194.99 309.38"></polygon>
    <path fill="#cacbcd" d="M443.11,272.68c-.06-2.48-1.58-4.85-4.64-6.61l-90.9-52.48c-6.89-4-19.05-3.48-27,1.12L164.93,304.56c-4.49,2.6-6.72,6-6.58,9.12v12.84c.06,2.48,1.59,4.84,4.64,6.61l90.9,52.48c6.89,4,19.05,3.47,27-1.12l155.63-89.86c4.5-2.59,6.73-6,6.58-9.11a.56.56,0,0,0,0-.13.57.57,0,0,0,0-.13.57.57,0,0,0,0-.13.56.56,0,0,0,0-.13.48.48,0,0,0,0-.12.56.56,0,0,0,0-.13.56.56,0,0,0,0-.13.57.57,0,0,0,0-.13.57.57,0,0,0,0-.13.56.56,0,0,0,0-.13.56.56,0,0,0,0-.13.48.48,0,0,0,0-.12.56.56,0,0,0,0-.13.57.57,0,0,0,0-.13.57.57,0,0,0,0-.13.56.56,0,0,0,0-.13.56.56,0,0,0,0-.13.48.48,0,0,0,0-.12.56.56,0,0,0,0-.13.56.56,0,0,0,0-.13.57.57,0,0,0,0-.13.57.57,0,0,0,0-.13.56.56,0,0,0,0-.13.48.48,0,0,0,0-.12.56.56,0,0,0,0-.13.56.56,0,0,0,0-.13.57.57,0,0,0,0-.13.57.57,0,0,0,0-.13.56.56,0,0,0,0-.13.48.48,0,0,0,0-.12.56.56,0,0,0,0-.13.56.56,0,0,0,0-.13.57.57,0,0,0,0-.13.57.57,0,0,0,0-.13.56.56,0,0,0,0-.13.56.56,0,0,0,0-.13.48.48,0,0,0,0-.12.56.56,0,0,0,0-.13.57.57,0,0,0,0-.13.57.57,0,0,0,0-.13.56.56,0,0,0,0-.13.56.56,0,0,0,0-.13.48.48,0,0,0,0-.12.56.56,0,0,0,0-.13.56.56,0,0,0,0-.13.57.57,0,0,0,0-.13.56.56,0,0,0,0-.13.56.56,0,0,0,0-.13.48.48,0,0,0,0-.12.56.56,0,0,0,0-.13.56.56,0,0,0,0-.13.57.57,0,0,0,0-.13.57.57,0,0,0,0-.13.56.56,0,0,0,0-.13.48.48,0,0,0,0-.12.56.56,0,0,0,0-.13.56.56,0,0,0,0-.13.57.57,0,0,0,0-.13.57.57,0,0,0,0-.13.56.56,0,0,0,0-.13.56.56,0,0,0,0-.13.48.48,0,0,0,0-.12.56.56,0,0,0,0-.13.57.57,0,0,0,0-.13.57.57,0,0,0,0-.13.56.56,0,0,0,0-.13.56.56,0,0,0,0-.13.48.48,0,0,0,0-.12.56.56,0,0,0,0-.13.57.57,0,0,0,0-.13.57.57,0,0,0,0-.13.56.56,0,0,0,0-.13.56.56,0,0,0,0-.13.48.48,0,0,0,0-.12.56.56,0,0,0,0-.13.56.56,0,0,0,0-.13.57.57,0,0,0,0-.13.57.57,0,0,0,0-.13.56.56,0,0,0,0-.13.48.48,0,0,0,0-.12.56.56,0,0,0,0-.13.56.56,0,0,0,0-.13.57.57,0,0,0,0-.13.57.57,0,0,0,0-.13.56.56,0,0,0,0-.13.48.48,0,0,0,0-.12.56.56,0,0,0,0-.13.56.56,0,0,0,0-.13.57.57,0,0,0,0-.13.57.57,0,0,0,0-.13.56.56,0,0,0,0-.13.56.56,0,0,0,0-.13.48.48,0,0,0,0-.12.56.56,0,0,0,0-.13.57.57,0,0,0,0-.13.57.57,0,0,0,0-.13.56.56,0,0,0,0-.13.56.56,0,0,0,0-.13.48.48,0,0,0,0-.12A.56.56,0,0,0,443.11,272.68ZM278.18,357.41,200.6,312.62l132.34-76.4L410.51,281Z"></path>
    <polygon fill="none" points="332.94 223.25 189.37 306.13 194.99 309.38 332.94 229.73 416.13 277.76 421.74 274.52 332.94 223.25"></polygon>
    <path fill="#fff" d="M438.47,266.07l-90.9-52.48c-6.89-4-19.05-3.48-27,1.12L164.93,304.56c-8,4.6-8.83,11.62-1.94,15.6l90.9,52.48c6.89,4,19.05,3.47,27-1.12l155.63-89.85C444.49,277.07,445.37,270.05,438.47,266.07Zm-22.34,11.69L278.18,357.41l-83.19-48-5.62-3.25,143.57-82.88,88.8,51.27Z"></path>
    <path fill="#cacbcd" d="M216.85,339.91c2.66-1.53,6.7-1.7,9-.37a3.45,3.45,0,0,1,1.12,1c.8-1.28.47-2.67-1.12-3.59-2.3-1.33-6.34-1.17-9,.37-2.09,1.21-2.7,2.89-1.76,4.21A4.9,4.9,0,0,1,216.85,339.91Z"></path>
    <path fill="#1a212e" d="M216.2,342.52c2.31,1.33,6.34,1.17,9-.37a5.16,5.16,0,0,0,1.76-1.61,3.45,3.45,0,0,0-1.12-1c-2.3-1.33-6.34-1.16-9,.37a4.9,4.9,0,0,0-1.76,1.62A3.5,3.5,0,0,0,216.2,342.52Z"></path>
</svg>